HIERARCHY
ROOT hip
{
  OFFSET 0 -7 0
  CHANNELS 6 Xposition Yposition Zposition Zrotation Xrotation Yrotation
  JOINT abdomen
  {
    OFFSET 0 -1.186 -1.50178
    CHANNELS 6 Xposition Yposition Zposition Zrotation Xrotation Yrotation
    JOINT abdomen2
    {
      OFFSET 0 9.964 0.21338
      CHANNELS 6 Xposition Yposition Zposition Zrotation Xrotation Yrotation
      JOINT chest
      {
        OFFSET 0 13.134 -3.25729
        CHANNELS 6 Xposition Yposition Zposition Zrotation Xrotation Yrotation
        JOINT neck
        {
          OFFSET 0 21.686 -1.69049
          CHANNELS 6 Xposition Yposition Zposition Zrotation Xrotation Yrotation
          JOINT head
          {
            OFFSET 0 11.838 -0.12368
            CHANNELS 6 Xposition Yposition Zposition Zrotation Xrotation Yrotation
            End Site
            {
              OFFSET 0 6.717 2.38717
            }
          }
        }
        JOINT lCollar
        {
          OFFSET 1.70688 20.075 5.0056
          CHANNELS 6 Xposition Yposition Zposition Zrotation Xrotation Yrotation
          JOINT lShldr
          {
            OFFSET 13.6458 -0.047012 -4.84902
            CHANNELS 6 Xposition Yposition Zposition Zrotation Xrotation Yrotation
            JOINT lForeArm
            {
              OFFSET 28.3255 -0.975903 2.28883
              CHANNELS 6 Xposition Yposition Zposition Zrotation Xrotation Yrotation
              JOINT lHand
              {
                OFFSET 22.1583 -0.530035 10.8316
                CHANNELS 6 Xposition Yposition Zposition Zrotation Xrotation Yrotation
                JOINT lThumb1
                {
                  OFFSET 0.785995 0.111999 2.58168
                  CHANNELS 6 Xposition Yposition Zposition Zrotation Xrotation Yrotation
                  JOINT lThumb2
                  {
                    OFFSET 0.3601 -0.878005 4.2331
                    CHANNELS 6 Xposition Yposition Zposition Zrotation Xrotation Yrotation
                    End Site
                    {
                      OFFSET 1.81271 -1.21601 2.2227
                    }
                  }
                }
                JOINT lCarpal1
                {
                  OFFSET 0.9571 1.114 1.76948
                  CHANNELS 6 Xposition Yposition Zposition Zrotation Xrotation Yrotation
                  JOINT lIndex1
                  {
                    OFFSET 4.1246 0.487 4.1451
                    CHANNELS 6 Xposition Yposition Zposition Zrotation Xrotation Yrotation
                    JOINT lIndex2
                    {
                      OFFSET 3.40521 -1.45401 2.7682
                      CHANNELS 6 Xposition Yposition Zposition Zrotation Xrotation Yrotation
                      End Site
                      {
                        OFFSET 1.4531 -1.795 1.2713
                      }
                    }
                  }
                  JOINT lMid1
                  {
                    OFFSET 5.6954 0.209991 2.1184
                    CHANNELS 6 Xposition Yposition Zposition Zrotation Xrotation Yrotation
                    JOINT lMid2
                    {
                      OFFSET 3.9766 -1.53999 2.3863
                      CHANNELS 6 Xposition Yposition Zposition Zrotation Xrotation Yrotation
                      End Site
                      {
                        OFFSET 1.4042 -1.926 1.125
                      }
                    }
                  }
                }
                JOINT lCarpal2
                {
                  OFFSET 2.09559 0.65999 -0.38939
                  CHANNELS 6 Xposition Yposition Zposition Zrotation Xrotation Yrotation
                  JOINT lRing1
                  {
                    OFFSET 5.0395 -0.089997 2.49707
                    CHANNELS 6 Xposition Yposition Zposition Zrotation Xrotation Yrotation
                    JOINT lRing2
                    {
                      OFFSET 3.7921 -1.552 1.4806
                      CHANNELS 6 Xposition Yposition Zposition Zrotation Xrotation Yrotation
                      End Site
                      {
                        OFFSET 1.4655 -1.808 0.9609
                      }
                    }
                  }
                  JOINT lPinky1
                  {
                    OFFSET 4.9141 -1.269 0.35915
                    CHANNELS 6 Xposition Yposition Zposition Zrotation Xrotation Yrotation
                    JOINT lPinky2
                    {
                      OFFSET 3.1477 -1.685 0.84623
                      CHANNELS 6 Xposition Yposition Zposition Zrotation Xrotation Yrotation
                      End Site
                      {
                        OFFSET 0.805505 -1.58499 0.79549
                      }
                    }
                  }
                }
              }
            }
          }
        }
        JOINT rCollar
        {
          OFFSET -1.70688 20.075 5.0056
          CHANNELS 6 Xposition Yposition Zposition Zrotation Xrotation Yrotation
          JOINT rShldr
          {
            OFFSET -13.6458 -0.047012 -4.84902
            CHANNELS 6 Xposition Yposition Zposition Zrotation Xrotation Yrotation
            JOINT rForeArm
            {
              OFFSET -28.3255 -0.975903 2.28883
              CHANNELS 6 Xposition Yposition Zposition Zrotation Xrotation Yrotation
              JOINT rHand
              {
                OFFSET -22.1583 -0.530036 10.8316
                CHANNELS 6 Xposition Yposition Zposition Zrotation Xrotation Yrotation
                JOINT rThumb1
                {
                  OFFSET -0.785995 0.111999 2.58168
                  CHANNELS 6 Xposition Yposition Zposition Zrotation Xrotation Yrotation
                  JOINT rThumb2
                  {
                    OFFSET -0.3601 -0.878005 4.2331
                    CHANNELS 6 Xposition Yposition Zposition Zrotation Xrotation Yrotation
                    End Site
                    {
                      OFFSET -1.81271 -1.21601 2.2227
                    }
                  }
                }
                JOINT rCarpal1
                {
                  OFFSET -0.9571 1.114 1.76948
                  CHANNELS 6 Xposition Yposition Zposition Zrotation Xrotation Yrotation
                  JOINT rIndex1
                  {
                    OFFSET -4.1246 0.487 4.1451
                    CHANNELS 6 Xposition Yposition Zposition Zrotation Xrotation Yrotation
                    JOINT rIndex2
                    {
                      OFFSET -3.40521 -1.45401 2.7682
                      CHANNELS 6 Xposition Yposition Zposition Zrotation Xrotation Yrotation
                      End Site
                      {
                        OFFSET -1.4531 -1.795 1.2713
                      }
                    }
                  }
                  JOINT rMid1
                  {
                    OFFSET -5.6954 0.209991 2.1184
                    CHANNELS 6 Xposition Yposition Zposition Zrotation Xrotation Yrotation
                    JOINT rMid2
                    {
                      OFFSET -3.9766 -1.53999 2.3863
                      CHANNELS 6 Xposition Yposition Zposition Zrotation Xrotation Yrotation
                      End Site
                      {
                        OFFSET -1.4042 -1.926 1.125
                      }
                    }
                  }
                }
                JOINT rCarpal2
                {
                  OFFSET -2.09559 0.65999 -0.38939
                  CHANNELS 6 Xposition Yposition Zposition Zrotation Xrotation Yrotation
                  JOINT rRing1
                  {
                    OFFSET -5.0395 -0.089997 2.49707
                    CHANNELS 6 Xposition Yposition Zposition Zrotation Xrotation Yrotation
                    JOINT rRing2
                    {
                      OFFSET -3.7921 -1.552 1.4806
                      CHANNELS 6 Xposition Yposition Zposition Zrotation Xrotation Yrotation
                      End Site
                      {
                        OFFSET -1.4655 -1.808 0.9609
                      }
                    }
                  }
                  JOINT rPinky1
                  {
                    OFFSET -4.9141 -1.269 0.35915
                    CHANNELS 6 Xposition Yposition Zposition Zrotation Xrotation Yrotation
                    JOINT rPinky2
                    {
                      OFFSET -3.1477 -1.685 0.84623
                      CHANNELS 6 Xposition Yposition Zposition Zrotation Xrotation Yrotation
                      End Site
                      {
                        OFFSET -0.805505 -1.58499 0.79549
                      }
                    }
                  }
                }
              }
            }
          }
        }
      }
    }
  }
  JOINT lThigh
  {
    OFFSET 8.367 -8.2066 0.59823
    CHANNELS 6 Xposition Yposition Zposition Zrotation Xrotation Yrotation
    JOINT lShin
    {
      OFFSET 2.19232 -43.463 -0.493181
      CHANNELS 6 Xposition Yposition Zposition Zrotation Xrotation Yrotation
      JOINT lFoot
      {
        OFFSET 0.733257 -45.8593 -2.64513
        CHANNELS 6 Xposition Yposition Zposition Zrotation Xrotation Yrotation
        End Site
        {
          OFFSET 2.6618 -4.26993 12.3931
        }
      }
    }
  }
  JOINT rThigh
  {
    OFFSET -8.367 -8.2066 0.59823
    CHANNELS 6 Xposition Yposition Zposition Zrotation Xrotation Yrotation
    JOINT rShin
    {
      OFFSET -2.19233 -43.463 -0.493108
      CHANNELS 6 Xposition Yposition Zposition Zrotation Xrotation Yrotation
      JOINT rFoot
      {
        OFFSET -0.733256 -45.8593 -2.64514
        CHANNELS 6 Xposition Yposition Zposition Zrotation Xrotation Yrotation
        End Site
        {
          OFFSET -2.6618 -4.26993 12.3931
        }
      }
    }
  }
}
MOTION
Frames:	4
Frame Time:	0.0333333
0.244491 103.806 -1.65738 -0.143485 4.44812 -2.46169 5.55112e-017 -1.186 -1.50178 0.264479 -0.477239 -2.11613 -5.55112e-017 9.964 0.21338 0.496376 -0.973888 -4.24739 -5.55112e-017 13.134 -3.25729 0.476781 -0.98682 -4.24677 0 21.686 -1.69049 7.58918 -23.7995 3.88644 0 11.838 -0.12368 -11.5648 10.8543 12.832 1.70688 20.075 5.0056 -4.17361 -0.0207219 2.59499 13.6458 -0.047012 -4.84902 -7.04266 11.353 -9.36749 28.3255 -0.975903 2.28883 0.254032 -7.88515 21.1576 22.1583 -0.530035 10.8316 8.37425 -4.54822 -2.01049 0.785995 0.111999 2.58168 4.96962e-017 0 -0 0.3601 -0.878005 4.2331 4.96962e-017 -3.97569e-016 -3.97569e-016 0.9571 1.114 1.76948 4.96962e-017 0 -0 4.1246 0.487 4.1451 4.96962e-017 -3.97569e-016 -3.97569e-016 3.40521 -1.45401 2.7682 6.21202e-017 -3.97569e-016 -1.98785e-016 5.6954 0.209991 2.1184 4.96962e-017 -3.97569e-016 -3.97569e-016 3.9766 -1.53999 2.3863 6.21202e-017 -3.97569e-016 -1.98785e-016 2.09559 0.65999 -0.38939 4.96962e-017 0 -0 5.0395 -0.089997 2.49707 4.96962e-017 -3.97569e-016 -3.97569e-016 3.7921 -1.552 1.4806 6.21202e-017 -3.97569e-016 -1.98785e-016 4.9141 -1.269 0.35915 4.96962e-017 -3.97569e-016 -3.97569e-016 3.1477 -1.685 0.84623 6.21202e-017 -3.97569e-016 -1.98785e-016 -1.70688 20.075 5.0056 9.57496 0.0584538 -0.305075 -13.6458 -0.047012 -4.84902 6.17097 6.97785 -8.62064 -28.3255 -0.975903 2.28883 -2.40188 -9.18064 -15.7179 -22.1583 -0.530036 10.8316 -3.43976 -3.01087 2.95238 -0.785995 0.111999 2.58168 1.39149e-015 -1.19271e-015 -3.18055e-015 -0.3601 -0.878005 4.2331 -3.97569e-016 -7.95139e-016 -0 -0.9571 1.114 1.76948 1.39149e-015 -1.19271e-015 -3.18055e-015 -4.1246 0.487 4.1451 -3.97569e-016 -7.95139e-016 -0 -3.40521 -1.45401 2.7682 7.95139e-016 -1.19271e-015 -0 -5.6954 0.209991 2.1184 -3.97569e-016 -7.95139e-016 -0 -3.9766 -1.53999 2.3863 7.95139e-016 -1.19271e-015 -0 -2.09559 0.65999 -0.38939 1.39149e-015 -1.19271e-015 -3.18055e-015 -5.0395 -0.089997 2.49707 -3.97569e-016 -7.95139e-016 -0 -3.7921 -1.552 1.4806 7.95139e-016 -1.19271e-015 -0 -4.9141 -1.269 0.35915 -3.97569e-016 -7.95139e-016 -0 -3.1477 -1.685 0.84623 7.95139e-016 -1.19271e-015 -0 8.367 -8.2066 0.59823 0.953869 -10.9673 5.47873 2.19232 -43.463 -0.493181 0.374983 6.66571 0.952946 0.733257 -45.8593 -2.64513 -2.66381 0.950542 -0.0373694 -8.367 -8.2066 0.59823 0.0833601 -11.4876 0.896996 -2.19233 -43.463 -0.493108 -1.06302 7.20402 -3.14557 -0.733256 -45.8593 -2.64514 3.46217 2.05362 -0.168819 
-0.463087 103.859 -1.67394 -0.373165 4.76831 1.30682 -1.11022e-016 -1.186 -1.50178 0.127193 -0.463585 -1.7581 0 9.964 0.21338 0.226888 -0.937785 -3.53206 -2.22045e-016 13.134 -3.25729 0.209383 -0.946737 -3.53088 0 21.686 -1.69049 6.13195 -22.85 2.00956 0 11.838 -0.12368 -10.7151 11.8101 10.4047 1.70688 20.075 5.0056 -4.6264 -0.0903214 3.18292 13.6458 -0.047012 -4.84902 -7.46031 9.82479 -8.39545 28.3255 -0.975903 2.28883 -0.123554 -7.57862 21.1621 22.1583 -0.530035 10.8316 8.06348 -4.19908 -1.28964 0.785995 0.111999 2.58168 1.39149e-015 -3.97569e-016 -0 0.3601 -0.878005 4.2331 1.39149e-015 -3.97569e-016 -0 0.9571 1.114 1.76948 1.39149e-015 -3.97569e-016 -0 4.1246 0.487 4.1451 1.39149e-015 -3.97569e-016 -0 3.40521 -1.45401 2.7682 5.96354e-016 -3.97569e-016 -0 5.6954 0.209991 2.1184 1.39149e-015 -3.97569e-016 -0 3.9766 -1.53999 2.3863 5.96354e-016 -3.97569e-016 -0 2.09559 0.65999 -0.38939 1.39149e-015 -3.97569e-016 -0 5.0395 -0.089997 2.49707 1.39149e-015 -3.97569e-016 -0 3.7921 -1.552 1.4806 5.96354e-016 -3.97569e-016 -0 4.9141 -1.269 0.35915 1.39149e-015 -3.97569e-016 -0 3.1477 -1.685 0.84623 5.96354e-016 -3.97569e-016 -0 -1.70688 20.075 5.0056 8.83388 0.204 0.290458 -13.6458 -0.047012 -4.84902 6.1276 6.21203 -7.58465 -28.3255 -0.975903 2.28883 -1.73599 -10.0966 -15.7209 -22.1583 -0.530036 10.8316 -4.52754 -4.02284 3.89252 -0.785995 0.111999 2.58168 5.96354e-016 0 -0 -0.3601 -0.878005 4.2331 3.97569e-016 -3.97569e-016 -0 -0.9571 1.114 1.76948 5.96354e-016 0 -0 -4.1246 0.487 4.1451 3.97569e-016 -3.97569e-016 -0 -3.40521 -1.45401 2.7682 1.78906e-015 -7.95139e-016 -3.18055e-015 -5.6954 0.209991 2.1184 3.97569e-016 -3.97569e-016 -0 -3.9766 -1.53999 2.3863 1.78906e-015 -7.95139e-016 -3.18055e-015 -2.09559 0.65999 -0.38939 5.96354e-016 0 -0 -5.0395 -0.089997 2.49707 3.97569e-016 -3.97569e-016 -0 -3.7921 -1.552 1.4806 1.78906e-015 -7.95139e-016 -3.18055e-015 -4.9141 -1.269 0.35915 3.97569e-016 -3.97569e-016 -0 -3.1477 -1.685 0.84623 1.78906e-015 -7.95139e-016 -3.18055e-015 8.367 -8.2066 0.59823 0.945663 -11.4135 5.6458 2.19232 -43.463 -0.493181 0.694298 5.84953 -2.55987 0.733257 -45.8593 -2.64513 -2.80296 1.4029 0.0177677 -8.367 -8.2066 0.59823 -0.0414941 -11.1879 1.11905 -2.19233 -43.463 -0.493108 -0.45667 6.89245 -6.68884 -0.733256 -45.8593 -2.64514 3.21267 1.99945 -0.148993 
-1.20116 103.831 -1.74533 -0.769717 5.30744 5.00614 0 -1.186 -1.50178 -0.00428983 -0.490628 -1.39183 -2.22045e-016 9.964 0.21338 -0.032776 -0.984944 -2.80005 0 13.134 -3.25729 -0.0489918 -0.989957 -2.79818 0 21.686 -1.69049 4.93169 -21.8288 0.116815 0 11.838 -0.12368 -9.22394 12.0644 7.51581 1.70688 20.075 5.0056 -4.94988 -0.145255 3.61552 13.6458 -0.047012 -4.84902 -7.73915 8.98299 -7.54064 28.3255 -0.975903 2.28883 0.261369 -8.43857 21.1534 22.1583 -0.530035 10.8316 7.05024 -3.69425 -1.30303 0.785995 0.111999 2.58168 4.96962e-016 -3.97569e-016 -0 0.3601 -0.878005 4.2331 1.09332e-015 1.98785e-016 -0 0.9571 1.114 1.76948 4.96962e-016 -3.97569e-016 -0 4.1246 0.487 4.1451 1.09332e-015 1.98785e-016 -0 3.40521 -1.45401 2.7682 -4.96962e-016 1.98785e-016 -0 5.6954 0.209991 2.1184 1.09332e-015 1.98785e-016 -0 3.9766 -1.53999 2.3863 -4.96962e-016 1.98785e-016 -0 2.09559 0.65999 -0.38939 4.96962e-016 -3.97569e-016 -0 5.0395 -0.089997 2.49707 1.09332e-015 1.98785e-016 -0 3.7921 -1.552 1.4806 -4.96962e-016 1.98785e-016 -0 4.9141 -1.269 0.35915 1.09332e-015 1.98785e-016 -0 3.1477 -1.685 0.84623 -4.96962e-016 1.98785e-016 -0 -1.70688 20.075 5.0056 8.32339 0.280225 0.625867 -13.6458 -0.047012 -4.84902 6.26363 6.25637 -7.18878 -28.3255 -0.975903 2.28883 -1.56729 -10.2825 -15.9712 -22.1583 -0.530036 10.8316 -4.02808 -3.56572 3.59704 -0.785995 0.111999 2.58168 -5.96354e-016 7.95139e-016 -0 -0.3601 -0.878005 4.2331 -1.98785e-016 3.97569e-016 -3.18055e-015 -0.9571 1.114 1.76948 -5.96354e-016 7.95139e-016 -0 -4.1246 0.487 4.1451 -1.98785e-016 3.97569e-016 -3.18055e-015 -3.40521 -1.45401 2.7682 5.96354e-016 0 3.18055e-015 -5.6954 0.209991 2.1184 -1.98785e-016 3.97569e-016 -3.18055e-015 -3.9766 -1.53999 2.3863 5.96354e-016 0 3.18055e-015 -2.09559 0.65999 -0.38939 -5.96354e-016 7.95139e-016 -0 -5.0395 -0.089997 2.49707 -1.98785e-016 3.97569e-016 -3.18055e-015 -3.7921 -1.552 1.4806 5.96354e-016 0 3.18055e-015 -4.9141 -1.269 0.35915 -1.98785e-016 3.97569e-016 -3.18055e-015 -3.1477 -1.685 0.84623 5.96354e-016 0 3.18055e-015 8.367 -8.2066 0.59823 1.21154 -12.6426 5.2142 2.19232 -43.463 -0.493181 0.660526 5.9324 -5.17124 0.733257 -45.8593 -2.64513 -2.89143 1.68687 0.0430804 -8.367 -8.2066 0.59823 0.237877 -11.6224 0.966978 -2.19233 -43.463 -0.493108 -0.333161 7.29489 -9.75397 -0.733256 -45.8593 -2.64514 3.36092 1.76668 -0.13405 
-1.86995 103.806 -1.80968 -1.05147 5.79937 8.21263 -2.22045e-016 -1.186 -1.50178 -0.146516 -0.484812 -0.976973 0 9.964 0.21338 -0.31198 -0.967685 -1.97102 4.44089e-016 13.134 -3.25729 -0.326055 -0.968369 -1.96852 0 21.686 -1.69049 3.71103 -20.8162 -1.63029 -8.88178e-016 11.838 -0.12368 -7.51314 11.612 4.51375 1.70688 20.075 5.0056 -5.23864 -0.202061 4.03191 13.6458 -0.047012 -4.84902 -7.9686 8.35521 -6.72382 28.3255 -0.975903 2.28883 0.368416 -10.4927 21.1367 22.1583 -0.530035 10.8316 7.9433 -3.99695 -0.739905 0.785995 0.111999 2.58168 5.96354e-016 -1.98785e-016 -0 0.3601 -0.878005 4.2331 1.19271e-015 -5.96354e-016 -0 0.9571 1.114 1.76948 5.96354e-016 -1.98785e-016 -0 4.1246 0.487 4.1451 1.19271e-015 -5.96354e-016 -0 3.40521 -1.45401 2.7682 2.98177e-016 -1.98785e-016 -3.18055e-015 5.6954 0.209991 2.1184 1.19271e-015 -5.96354e-016 -0 3.9766 -1.53999 2.3863 2.98177e-016 -1.98785e-016 -3.18055e-015 2.09559 0.65999 -0.38939 5.96354e-016 -1.98785e-016 -0 5.0395 -0.089997 2.49707 1.19271e-015 -5.96354e-016 -0 3.7921 -1.552 1.4806 2.98177e-016 -1.98785e-016 -3.18055e-015 4.9141 -1.269 0.35915 1.19271e-015 -5.96354e-016 -0 3.1477 -1.685 0.84623 2.98177e-016 -1.98785e-016 -3.18055e-015 -1.70688 20.075 5.0056 8.18492 0.282443 0.647629 -13.6458 -0.047012 -4.84902 6.44665 5.92824 -7.17642 -28.3255 -0.975903 2.28883 -2.17677 -9.75872 -16.249 -22.1583 -0.530036 10.8316 -2.64157 -2.34291 3.12013 -0.785995 0.111999 2.58168 -3.97569e-016 -6.95746e-016 -6.36111e-015 -0.3601 -0.878005 4.2331 -4.22417e-016 -1.09332e-015 -6.36111e-015 -0.9571 1.114 1.76948 -3.97569e-016 -6.95746e-016 -6.36111e-015 -4.1246 0.487 4.1451 -4.22417e-016 -1.09332e-015 -6.36111e-015 -3.40521 -1.45401 2.7682 -4.22417e-016 -2.98177e-016 -6.36111e-015 -5.6954 0.209991 2.1184 -4.22417e-016 -1.09332e-015 -6.36111e-015 -3.9766 -1.53999 2.3863 -4.22417e-016 -2.98177e-016 -6.36111e-015 -2.09559 0.65999 -0.38939 -3.97569e-016 -6.95746e-016 -6.36111e-015 -5.0395 -0.089997 2.49707 -4.22417e-016 -1.09332e-015 -6.36111e-015 -3.7921 -1.552 1.4806 -4.22417e-016 -2.98177e-016 -6.36111e-015 -4.9141 -1.269 0.35915 -4.22417e-016 -1.09332e-015 -6.36111e-015 -3.1477 -1.685 0.84623 -4.22417e-016 -2.98177e-016 -6.36111e-015 8.367 -8.2066 0.59823 1.32592 -13.6257 4.86125 2.19232 -43.463 -0.493181 0.575078 5.7198 -7.66001 0.733257 -45.8593 -2.64513 -3.09699 1.99291 0.0832906 -8.367 -8.2066 0.59823 0.262762 -12.1014 1.23069 -2.19233 -43.463 -0.493108 0.000814823 7.64911 -13.0773 -0.733256 -45.8593 -2.64514 3.48417 1.42488 -0.106035 
